<svg id="Capa_1" enable-background="new 0 0 510 510" height="512" viewBox="0 0 510 510" width="512" xmlns="http://www.w3.org/2000/svg"><g><path id="XMLID_2919_" d="m209 120v30l22.5 10 22.5-10 10-15-10-15-22.5-10z" fill="#d3dce3"/><path id="XMLID_2921_" d="m299 120-22.5-10-22.5 10v30l22.5 10 22.5-10z" fill="#a4c6cb"/><path id="XMLID_2893_" d="m104 150-30 10-30-10v-60h60z" fill="#294865"/><path id="XMLID_1_" d="m254 210.013 10-28.492-10-31.521h-254v180l59 10 76-10z" fill="#3f617f"/><path id="XMLID_2916_" d="m149 0v120h105l10-60-10-60z" fill="#3f617f"/><path id="XMLID_2918_" d="m254 0h105v120h-105z" fill="#294865"/><path id="XMLID_2871_" d="m135 330c0 65.834 53.291 119.447 119 119.987v-239.974c-65.709.54-119 54.153-119 119.987z" fill="none"/><path id="XMLID_2874_" d="m464 150-27.334 10-32.666-10v-60h60z" fill="#629df5"/><path id="XMLID_2873_" d="m375 330c0-66.455-54.357-120.572-121-119.987v239.975c66.45.582 121-53.34 121-119.988z" fill="none"/><path id="XMLID_16_" d="m135 330h-135v180h254l10-26.475-10-33.538z" fill="#294865"/><path id="XMLID_50_" d="m373 330 73 10 64-10v-180h-256v60.013c.334-.003.666-.013 1-.013z" fill="#294865"/><path id="XMLID_51_" d="m255 450c-.334 0-.666-.01-1-.013v60.013h256v-180h-137z" fill="#15314c"/><path id="XMLID_2923_" d="m178.777 30.318.449 59.998 74.997-.56 9.776-30.073-10.224-29.925z" fill="#ffc24c"/><path id="XMLID_2924_" d="m254 30h75v60h-75z" fill="#ff9935"/><path id="XMLID_2925_" d="m135 330c0 65.834 53.291 119.447 119 119.987l10-114.946-10-125.028c-65.709.54-119 54.153-119 119.987z" fill="#fff5f5"/><path id="XMLID_5_" d="m373 330c0 65.834-53.291 119.447-119 119.987v-239.974c65.709.54 119 54.153 119 119.987z" fill="#d3dce3"/><path id="XMLID_2905_" d="m195 330c0 32.748 26.377 59.436 59 59.975l10-54.928-10-65.022c-32.623.539-59 27.227-59 59.975z" fill="#ffc24c"/><path id="XMLID_2910_" d="m254 270.025v119.949c33.524.588 61-26.556 61-59.975 0-33.399-27.459-60.561-61-59.974z" fill="#ff9935"/></g></svg>